<svg xmlns="http://www.w3.org/2000/svg" width="742.4" height="928" viewBox="0 0 742.4 928">
  <g id="bg-illustrations" transform="translate(-103.6 -96)">
    <g id="bg-intersection-illuatration" transform="translate(-1064 -107)">
      <path id="Exclusion_1" data-name="Exclusion 1" d="M166,273a91.673,91.673,0,0,1-18.34-1.849,90.5,90.5,0,0,1-32.539-13.693,91.267,91.267,0,0,1-32.97-40.038,90.546,90.546,0,0,1-5.3-17.082A91.677,91.677,0,0,1,75,182c0-.463,0-.934.011-1.4a91.947,91.947,0,0,0,34.163-.415,90.495,90.495,0,0,0,32.3-13.453,91.28,91.28,0,0,0,32.985-39.4,90.54,90.54,0,0,0,5.448-16.836A91.507,91.507,0,0,0,181.989,92.4a91.947,91.947,0,0,0-34.163.415,90.495,90.495,0,0,0-32.3,13.453,91.278,91.278,0,0,0-32.985,39.4,90.538,90.538,0,0,0-5.448,16.836A91.509,91.509,0,0,0,75.011,180.6h0A90.2,90.2,0,0,1,45.3,169.713,91.058,91.058,0,1,1,182,91c0,.461,0,.932-.011,1.4A90.2,90.2,0,0,1,211.7,103.287,90.984,90.984,0,0,1,166,273Z" transform="translate(1179 239)" fill="none" stroke="#fff" stroke-width="3"/>
      <path id="Intersection_1" data-name="Intersection 1" d="M0,89.6A91.082,91.082,0,0,1,106.978,1.4,91,91,0,0,1,15.989,91,91.591,91.591,0,0,1,0,89.6Z" transform="translate(1254 330)" fill="#fff600" stroke="#fff600" stroke-width="3"/>
    </g>
    <g id="bg-btn-illu-decoration" transform="translate(-781 -73)">
      <g id="Rectangle_3" data-name="Rectangle 3" transform="translate(1101 660)" fill="none" stroke="#fff" stroke-width="3">
        <rect width="282" height="120" rx="10" stroke="none"/>
        <rect x="1.5" y="1.5" width="279" height="117" rx="8.5" fill="none"/>
      </g>
      <rect id="Rectangle_2" data-name="Rectangle 2" width="282" height="120" rx="10" transform="translate(1127 632)" fill="#00ff9b"/>
    </g>
    <g id="bg-search-bar-illustration" transform="translate(-158 -169)">
      <g id="Rectangle_5" data-name="Rectangle 5" transform="translate(604 537)" fill="none" stroke="#fff" stroke-width="3">
        <rect width="400" height="75" rx="15" stroke="none"/>
        <rect x="1.5" y="1.5" width="397" height="72" rx="13.5" fill="none"/>
      </g>
      <line id="Line_3" data-name="Line 3" y2="36" transform="translate(630.5 556.5)" fill="none" stroke="#00ff9b" stroke-width="3"/>
    </g>
    <g id="bg-menu-icn-decoration" transform="translate(-10.4 -27.2)">
      <g id="Ellipse_14" data-name="Ellipse 14" transform="translate(114 793)" fill="none" stroke="#fff" stroke-width="3">
        <circle cx="107.2" cy="107.2" r="107.2" stroke="none"/>
        <circle cx="107.2" cy="107.2" r="105.7" fill="none"/>
      </g>
      <g id="hamburger-menu" transform="translate(176.533 873.4)">
        <line id="Line_19" data-name="Line 19" x2="89.333" fill="none" stroke="#fff600" stroke-width="3"/>
        <line id="Line_20" data-name="Line 20" x2="89.333" transform="translate(0 26.8)" fill="none" stroke="#fff600" stroke-width="3"/>
        <line id="Line_21" data-name="Line 21" x2="89.333" transform="translate(0 53.6)" fill="none" stroke="#fff600" stroke-width="3"/>
      </g>
    </g>
    <g id="bg-cards-illu-decoration" transform="translate(-585 -22)">
      <rect id="Rectangle_18" data-name="Rectangle 18" width="125" height="200" rx="10" transform="translate(1106 846)" fill="#fff600"/>
      <g id="Rectangle_19" data-name="Rectangle 19" transform="translate(1256 846)" fill="none" stroke="#fff" stroke-width="3">
        <rect width="85" height="200" rx="10" stroke="none"/>
        <rect x="1.5" y="1.5" width="82" height="197" rx="8.5" fill="none"/>
      </g>
      <g id="Rectangle_20" data-name="Rectangle 20" transform="translate(1366 846)" fill="none" stroke="#fff" stroke-width="3">
        <rect width="35" height="200" rx="10" stroke="none"/>
        <rect x="1.5" y="1.5" width="32" height="197" rx="8.5" fill="none"/>
      </g>
    </g>
    <g id="bg-motion--illu-decoration" transform="translate(-1063 -56)">
      <g id="Ellipse_15" data-name="Ellipse 15" transform="translate(1649 152)" fill="none" stroke="#fff" stroke-width="3">
        <circle cx="45" cy="45" r="45" stroke="none"/>
        <circle cx="45" cy="45" r="43.5" fill="none"/>
      </g>
      <circle id="Ellipse_16" data-name="Ellipse 16" cx="45" cy="45" r="45" transform="translate(1584 152)" fill="#fff" opacity="0.38"/>
      <g id="Ellipse_17" data-name="Ellipse 17" transform="translate(1713 152)" fill="#fff" stroke="#fff" stroke-width="3">
        <circle cx="45" cy="45" r="45" stroke="none"/>
        <circle cx="45" cy="45" r="43.5" fill="none"/>
      </g>
    </g>
  </g>
</svg>
