<svg xmlns="http://www.w3.org/2000/svg" width="260" height="276.001" viewBox="0 0 260 276.001">
  <g id="bg-intersection-illuatration" transform="translate(-1177.5 -237.5)">
    <path id="Exclusion_1" data-name="Exclusion 1" d="M166,273a91.673,91.673,0,0,1-18.34-1.849,90.5,90.5,0,0,1-32.539-13.693,91.267,91.267,0,0,1-32.97-40.038,90.546,90.546,0,0,1-5.3-17.082A91.677,91.677,0,0,1,75,182c0-.463,0-.934.011-1.4a91.947,91.947,0,0,0,34.163-.415,90.495,90.495,0,0,0,32.3-13.453,91.28,91.28,0,0,0,32.985-39.4,90.54,90.54,0,0,0,5.448-16.836A91.507,91.507,0,0,0,181.989,92.4a91.947,91.947,0,0,0-34.163.415,90.495,90.495,0,0,0-32.3,13.453,91.278,91.278,0,0,0-32.985,39.4,90.538,90.538,0,0,0-5.448,16.836A91.509,91.509,0,0,0,75.011,180.6h0A90.2,90.2,0,0,1,45.3,169.713,91.058,91.058,0,1,1,182,91c0,.461,0,.932-.011,1.4A90.2,90.2,0,0,1,211.7,103.287,90.984,90.984,0,0,1,166,273Z" transform="translate(1179 239)" fill="none" stroke="#fff" stroke-width="3"/>
    <path id="Intersection_1" data-name="Intersection 1" d="M0,89.6A91.082,91.082,0,0,1,106.978,1.4,91,91,0,0,1,15.989,91,91.591,91.591,0,0,1,0,89.6Z" transform="translate(1254 330)" fill="#fff600" stroke="#fff600" stroke-width="3"/>
  </g>
</svg>
