<svg xmlns="http://www.w3.org/2000/svg" xmlns:xlink="http://www.w3.org/1999/xlink" width="160.5" height="95" viewBox="0 0 160.5 95">
  <defs>
    <filter id="Ellipse_4" x="0" y="5.5" width="86" height="86" filterUnits="userSpaceOnUse">
      <feOffset dy="4" input="SourceAlpha"/>
      <feGaussianBlur stdDeviation="6" result="blur"/>
      <feFlood flood-opacity="0.149"/>
      <feComposite operator="in" in2="blur"/>
      <feComposite in="SourceGraphic"/>
    </filter>
    <filter id="Ellipse_4-2" x="65.5" y="0" width="95" height="95" filterUnits="userSpaceOnUse">
      <feOffset dy="3" input="SourceAlpha"/>
      <feGaussianBlur stdDeviation="7.5" result="blur-2"/>
      <feFlood flood-opacity="0.2"/>
      <feComposite operator="in" in2="blur-2"/>
      <feComposite in="SourceGraphic"/>
    </filter>
  </defs>
  <g id="page-control-btns" transform="translate(-1700 -960.5)">
    <g id="backwards-btn">
      <g transform="matrix(1, 0, 0, 1, 1700, 960.5)" filter="url(#Ellipse_4)">
        <circle id="Ellipse_4-3" data-name="Ellipse 4" cx="25" cy="25" r="25" transform="translate(68 69.5) rotate(180)" fill="#fff"/>
      </g>
      <g id="arrow-right" transform="translate(1755 1017) rotate(180)">
        <line id="Line_2" data-name="Line 2" x2="14" transform="translate(5 12)" fill="none" stroke="#ac2e00" stroke-linecap="round" stroke-linejoin="round" stroke-width="2"/>
        <path id="Path_2" data-name="Path 2" d="M12,5l7,7-7,7" fill="none" stroke="#ac2e00" stroke-linecap="round" stroke-linejoin="round" stroke-width="2"/>
      </g>
    </g>
    <g id="forwards-btn" transform="translate(3556 2010) rotate(180)">
      <g transform="matrix(-1, 0, 0, -1, 1856, 1049.5)" filter="url(#Ellipse_4-2)">
        <circle id="Ellipse_4-4" data-name="Ellipse 4" cx="25" cy="25" r="25" transform="translate(88 19.5)" fill="#fff"/>
      </g>
      <g id="arrow-right-2" data-name="arrow-right" transform="translate(1755 1017) rotate(180)">
        <line id="Line_2-2" data-name="Line 2" x2="14" transform="translate(5 12)" fill="none" stroke="#ac2e00" stroke-linecap="round" stroke-linejoin="round" stroke-width="2"/>
        <path id="Path_2-2" data-name="Path 2" d="M12,5l7,7-7,7" fill="none" stroke="#ac2e00" stroke-linecap="round" stroke-linejoin="round" stroke-width="2"/>
      </g>
    </g>
  </g>
</svg>
